<svg width="20" height="18" viewBox="0 0 20 18" fill="none" xmlns="http://www.w3.org/2000/svg">
    <path
        d="M6.10627 14.9619C3.29819 12.7984 0 10.2573 0 5.85219C0 0.989251 5.50016 -2.45945 10 2.21572L12 4.21437C12.2929 4.50721 12.7678 4.50712 13.0607 4.21417C13.3535 3.92123 13.3534 3.44635 13.0605 3.15351L11.1285 1.22221C15.3685 -1.88183 20 1.38973 20 5.85219C20 10.2573 16.7018 12.7984 13.8937 14.9619C13.6019 15.1868 13.3153 15.4076 13.0383 15.626C12 16.4445 11 17.2151 10 17.2151C9 17.2151 8 16.4445 6.96173 15.626C6.68471 15.4076 6.39814 15.1868 6.10627 14.9619Z"
        fill="black" fill-opacity="0.44" />
</svg>
